<svg height="512pt" viewBox="-8 0 512 512" width="512pt" xmlns="http://www.w3.org/2000/svg"><path d="m496.175781 173.667969c-8.46875-50.136719-34.402343-93.546875-70.925781-124.414063-36.550781-30.898437-83.671875-49.253906-134.46875-49.253906v.0585938c-8.253906 0-14.945312 6.6914062-14.945312 14.9453122v192.363282c-.070313 1.121093-.015626 2.269531.175781 3.425781 1.359375 8.15625 9.074219 13.667969 17.230469 12.308593l190.628906-32.203124c8.15625-1.363282 13.664062-9.078126 12.304687-17.230469zm0 0" fill-rule="evenodd"/><path d="m84.910156 426.867188c-9.628906 9.628906-8.851562 25.535156 1.773438 34.050781 39.738281 31.847656 90.308594 51.082031 145.09375 51.082031v-.066406h.160156c52.789062 0 105.574219-17.917969 148.453125-53.761719 8.640625-7.226563 9.273437-20.289063 1.308594-28.253906l-136.394531-136.394531c-7.472657-7.46875-19.582032-7.46875-27.050782 0zm0 0"/><path d="m462.542969 255.992188c-.925781-8.828126-8.351563-15.308594-16.890625-15.308594-1.027344 0-2.066406.09375-3.117188.289062l-139.199218 25.777344c-15.144532 2.804688-20.933594 21.441406-10.042969 32.332031l106.152343 106.152344c8.765626 8.765625 23.359376 6.960937 29.871094-3.589844 12.421875-20.105469 21.851563-42.257812 27.679688-65.824219.09375-.382812.183594-.761718.277344-1.144531 1.117187-4.609375 2.101562-9.253906 2.929687-13.925781 3.75-20.957031 4.652344-42.710938 2.339844-64.757812zm0 0"/><path d="m210.5625 258.78125 15.613281-15.613281c3.585938-3.585938 5.601563-8.449219 5.601563-13.523438v-163.539062c0-9.441407-7.671875-17.003907-16.945313-17.003907-.441406 0-.886719.019532-1.335937.050782-119.460938 9.324218-213.496094 109.214844-213.496094 231.070312 0 44.582032 12.589844 86.226563 34.40625 121.570313 6.460938 10.46875 21.054688 12.089843 29.753906 3.390625zm0 0"/></svg>