<svg id="Capa_1" enable-background="new 0 0 512 512" height="512" viewBox="0 0 512 512" width="512" xmlns="http://www.w3.org/2000/svg"><g><path d="m427.81 250.87h-195.811l111.78-160.779c2.363-3.399 1.525-8.07-1.873-10.437-36.589-25.477-79.555-38.944-124.256-38.944-32.644 0-64.024 7.047-93.261 20.942-7.42 3.516-14.74 7.518-21.757 11.895-30.791 19.203-56.523 46.027-74.417 77.571-18.459 32.54-28.215 69.626-28.215 107.252 0 22.618 3.454 44.898 10.265 66.218 0 .001.001.002.001.003 21.095 66.151 73.058 118.658 139 140.46 3.935 1.296 8.175-.834 9.476-4.767 1.3-3.933-.834-8.175-4.767-9.476-59.018-19.511-105.993-65.446-126.992-123.682l191.835-61.256h201.355c-.588 16.103-3.067 32.019-7.394 47.412-24.423 86.986-104.662 147.738-195.129 147.738-10.802 0-21.624-.856-32.164-2.545-4.088-.654-7.936 2.128-8.592 6.219-.655 4.09 2.129 7.937 6.219 8.592 11.322 1.814 22.942 2.734 34.537 2.734 48.428 0 94.267-15.563 132.563-45.009 37.084-28.514 64.433-68.884 77.007-113.672 5.368-19.099 8.09-38.939 8.09-58.969 0-4.142-3.358-7.5-7.5-7.5zm-405.401 61.971c-4.918-17.646-7.409-35.933-7.409-54.471 0-70.438 35.727-134.773 95.569-172.097 6.531-4.073 13.341-7.796 20.25-11.07 3.413-1.622 6.857-3.143 10.331-4.564l17.884 48.992c1.111 3.043 3.985 4.931 7.046 4.931.854 0 1.723-.146 2.571-.457 3.891-1.42 5.894-5.726 4.474-9.616l-17.884-48.992c20.021-6.492 40.916-9.786 62.408-9.786 39.111 0 76.791 11.068 109.456 32.084l-107.364 154.429-34.686-95.045c-1.42-3.892-5.724-5.894-9.617-4.475-3.891 1.421-5.894 5.726-4.474 9.617l36.961 101.28z"/><path d="m418.597 37.326c-1.633-1.138-3.652-1.581-5.61-1.228-1.959.351-3.698 1.467-4.834 3.101l-119.96 172.55c-1.594 2.293-1.782 5.281-.489 7.756s3.854 4.025 6.647 4.025h121.83c4.142 0 7.5-3.357 7.5-7.5s-3.358-7.5-7.5-7.5h-107.482l107.405-154.491c48.796 36.736 78.496 93.557 80.757 154.491h-47.991c-4.142 0-7.5 3.357-7.5 7.5s3.358 7.5 7.5 7.5h55.63c4.142 0 7.5-3.357 7.5-7.5 0-71.159-34.917-137.964-93.403-178.704z"/></g></svg>