<?xml version="1.0" encoding="iso-8859-1"?>
<!-- Generator: Adobe Illustrator 19.0.0, SVG Export Plug-In . SVG Version: 6.00 Build 0)  -->
<svg version="1.1" id="Layer_1" xmlns="http://www.w3.org/2000/svg" xmlns:xlink="http://www.w3.org/1999/xlink" x="0px" y="0px"
	 viewBox="0 0 512 512" style="enable-background:new 0 0 512 512;" xml:space="preserve">
<polygon style="fill:#415E72;" points="333.744,125.232 155.488,252.728 155.488,281.736 333.744,154.24 512,281.736 512,252.728 
	"/>
<polygon style="fill:#E04F5F;" points="185.328,512 185.328,285.68 333.744,178.8 482.16,285.68 482.16,512 "/>
<rect x="280.4" y="345.36" style="fill:#415E72;" width="106.632" height="166.6"/>
<circle style="fill:#E04F5F;" cx="172.648" cy="119.136" r="55.968"/>
<path style="fill:#FFFFFF;" d="M169.96,149.84v-7.512c-4.408-0.056-8.728-1.232-12.56-3.416l2.096-7.28
	c3.664,2.168,7.84,3.344,12.096,3.408c4.88,0,8.216-2.4,8.216-6.128c0-3.488-2.72-5.736-8.456-7.832
	c-8.144-2.944-13.408-6.664-13.408-13.872c0.152-6.944,5.552-12.648,12.48-13.168V86.4h6.376v7.2
	c3.712,0.04,7.368,0.912,10.696,2.552l-2.096,7.136c-3.256-1.704-6.864-2.608-10.536-2.632c-5.432,0-7.368,2.792-7.368,5.424
	c0,3.2,2.792,4.96,9.384,7.6c8.68,3.248,12.552,7.44,12.552,14.336c-0.144,7.296-5.824,13.28-13.104,13.8v8L169.96,149.84z"/>
<circle style="fill:#32BEA6;" cx="54.376" cy="54.376" r="54.376"/>
<path style="fill:#FFFFFF;" d="M51.76,84.208v-7.304c-4.28-0.048-8.48-1.184-12.2-3.304l2.04-7.088
	c3.56,2.104,7.616,3.248,11.752,3.312c4.744,0,8-2.336,8-5.952c0-3.392-2.64-5.6-8.208-7.608c-7.912-2.856-13.032-6.48-13.032-13.48
	c0.144-6.752,5.392-12.288,12.128-12.8V22.6h6.16v7c3.608,0.04,7.16,0.888,10.4,2.488l-2.032,6.928
	c-3.16-1.656-6.672-2.536-10.24-2.56c-5.272,0-7.16,2.712-7.16,5.272c0,3.088,2.712,4.8,9.112,7.384c8.44,3.16,12.2,7.2,12.2,13.928
	c-0.144,7.088-5.664,12.904-12.736,13.416v7.76L51.76,84.208z"/>
<circle style="fill:#415E72;" cx="61.04" cy="175.312" r="42.112"/>
<path style="fill:#FFFFFF;" d="M59.016,198.4v-5.656c-3.304-0.048-6.544-0.928-9.416-2.56l1.6-5.488
	c2.76,1.632,5.896,2.52,9.104,2.568c3.672,0,6.184-1.816,6.184-4.608c0-2.624-2.048-4.32-6.36-5.896
	c-6.136-2.208-10.104-5.016-10.104-10.4c0.112-5.232,4.184-9.528,9.4-9.92v-5.72h4.8v5.424c2.8,0.032,5.552,0.688,8.056,1.928
	l-1.6,5.368c-2.448-1.28-5.168-1.96-7.928-1.984c-4.088,0-5.544,2.104-5.544,4.088c0,2.4,2.104,3.736,7.064,5.72
	c6.528,2.456,9.456,5.6,9.456,10.8c-0.112,5.488-4.376,10-9.856,10.4v5.936H59.016z"/>
<g>
</g>
<g>
</g>
<g>
</g>
<g>
</g>
<g>
</g>
<g>
</g>
<g>
</g>
<g>
</g>
<g>
</g>
<g>
</g>
<g>
</g>
<g>
</g>
<g>
</g>
<g>
</g>
<g>
</g>
</svg>
